<svg xmlns='http://www.w3.org/2000/svg' width='720' height='410' viewBox='0 0 720 410' font-family='monospace' font-size='11'><text x='46.0' y='20'>S3 cardinality: accuracy and p50 latency versus N</text><text x='46.0' y='36'>accuracy</text> <rect x='46.0' y='40.0' width='299.0' height='230.0' fill='#f8f8f8' stroke='#ccc'/><line x1='79.2' y1='40.0' x2='79.2' y2='270.0' stroke='#e4e4e4'/><text x='79.2' y='284.0' text-anchor='middle'>2</text><line x1='145.7' y1='40.0' x2='145.7' y2='270.0' stroke='#e4e4e4'/><text x='145.7' y='284.0' text-anchor='middle'>8</text><line x1='212.1' y1='40.0' x2='212.1' y2='270.0' stroke='#e4e4e4'/><text x='212.1' y='284.0' text-anchor='middle'>32</text><line x1='245.3' y1='40.0' x2='245.3' y2='270.0' stroke='#e4e4e4'/><text x='245.3' y='284.0' text-anchor='middle'>64</text><line x1='278.6' y1='40.0' x2='278.6' y2='270.0' stroke='#e4e4e4'/><text x='278.6' y='284.0' text-anchor='middle'>128</text><line x1='298.0' y1='40.0' x2='298.0' y2='270.0' stroke='#e4e4e4'/><line x1='311.4' y1='40.0' x2='311.4' y2='270.0' stroke='#e4e4e4'/><line x1='311.6' y1='40.0' x2='311.6' y2='270.0' stroke='#e4e4e4'/><text x='311.6' y='284.0' text-anchor='middle'>255</text><line x1='311.8' y1='40.0' x2='311.8' y2='270.0' stroke='#e4e4e4'/><line x1='331.2' y1='40.0' x2='331.2' y2='270.0' stroke='#e4e4e4'/><line x1='345.0' y1='40.0' x2='345.0' y2='270.0' stroke='#e4e4e4'/><text x='345.0' y='284.0' text-anchor='middle'>512</text><line x1='46.0' y1='270.0' x2='345.0' y2='270.0' stroke='#e4e4e4'/><text x='40.0' y='274.0' text-anchor='end'>0.00</text><line x1='46.0' y1='224.0' x2='345.0' y2='224.0' stroke='#e4e4e4'/><text x='40.0' y='228.0' text-anchor='end'>0.20</text><line x1='46.0' y1='178.0' x2='345.0' y2='178.0' stroke='#e4e4e4'/><text x='40.0' y='182.0' text-anchor='end'>0.40</text><line x1='46.0' y1='132.0' x2='345.0' y2='132.0' stroke='#e4e4e4'/><text x='40.0' y='136.0' text-anchor='end'>0.60</text><line x1='46.0' y1='86.0' x2='345.0' y2='86.0' stroke='#e4e4e4'/><text x='40.0' y='90.0' text-anchor='end'>0.80</text><line x1='46.0' y1='40.0' x2='345.0' y2='40.0' stroke='#e4e4e4'/><text x='40.0' y='44.0' text-anchor='end'>1.00</text><polyline points="79.2,40.0 145.7,40.0 212.1,40.0 245.3,40.0 278.6,40.0 298.0,40.0 311.4,40.0 311.6,40.0 311.8,40.0 331.2,40.0 345.0,40.0" fill="none" stroke="#2455e4" stroke-width="2.0" stroke-linejoin="round" stroke-linecap="round"/><circle cx='345.0' cy='40.0' r='2.5' fill='#2455e4'/><polyline points="79.2,40.0 145.7,40.0 212.1,40.0 245.3,40.0 278.6,40.0 298.0,40.0 311.4,40.0 311.6,40.0 311.8,40.0 331.2,40.0 345.0,40.0" fill="none" stroke="#d42a2a" stroke-width="2.0" stroke-linejoin="round" stroke-linecap="round"/><circle cx='345.0' cy='40.0' r='2.5' fill='#d42a2a'/><polyline points="79.2,40.0 145.7,40.0 212.1,40.0 245.3,40.0 278.6,40.0 298.0,40.0 311.4,40.0 311.6,40.0 311.8,40.0 331.2,40.0 345.0,40.0" fill="none" stroke="#187a3b" stroke-width="2.0" stroke-linejoin="round" stroke-linecap="round"/><circle cx='345.0' cy='40.0' r='2.5' fill='#187a3b'/><polyline points="79.2,150.4 145.7,233.2 212.1,260.8 245.3,260.8 278.6,270.0 298.0,270.0 311.4,260.8 311.6,260.8 311.8,270.0 331.2,270.0 345.0,260.8" fill="none" stroke="#a21caf" stroke-width="2.0" stroke-linejoin="round" stroke-linecap="round"/><circle cx='345.0' cy='260.8' r='2.5' fill='#a21caf'/><polyline points="79.2,150.4 145.7,260.8 212.1,260.8 245.3,270.0 278.6,270.0 298.0,270.0 311.4,270.0 311.6,270.0 311.8,270.0 331.2,270.0 345.0,270.0" fill="none" stroke="#b45309" stroke-width="2.0" stroke-linejoin="round" stroke-linecap="round"/><circle cx='345.0' cy='270.0' r='2.5' fill='#b45309'/><polyline points="79.2,40.0 145.7,40.0 212.1,40.0 245.3,40.0 278.6,40.0 298.0,40.0 311.4,40.0 311.6,40.0 311.8,40.0 331.2,40.0 345.0,49.6" fill="none" stroke="#0e7490" stroke-width="2.0" stroke-linejoin="round" stroke-linecap="round"/><circle cx='345.0' cy='49.6' r='2.5' fill='#0e7490'/><polyline points="79.2,40.0 145.7,40.0 212.1,40.0 245.3,40.0 278.6,40.0 298.0,40.0 311.4,40.0 311.6,40.0 311.8,40.0 331.2,40.0 345.0,40.0" fill="none" stroke="#5b21b6" stroke-width="2.0" stroke-linejoin="round" stroke-linecap="round"/><circle cx='345.0' cy='40.0' r='2.5' fill='#5b21b6'/><polyline points="79.2,40.0 145.7,40.0 212.1,40.0 245.3,40.0 278.6,40.0 298.0,40.0 311.4,43.1 311.6,43.1 311.8,40.0 331.2,40.0 345.0,40.0" fill="none" stroke="#991b1b" stroke-width="2.0" stroke-linejoin="round" stroke-linecap="round"/><circle cx='345.0' cy='40.0' r='2.5' fill='#991b1b'/><polyline points="79.2,40.0 145.7,40.0 212.1,40.0 245.3,40.0 278.6,46.1 298.0,55.5 311.4,89.1 311.6,67.6 311.8,40.0 331.2,86.0 345.0,67.6" fill="none" stroke="#4d7c0f" stroke-width="2.0" stroke-linejoin="round" stroke-linecap="round"/><circle cx='345.0' cy='67.6' r='2.5' fill='#4d7c0f'/><polyline points="79.2,40.0 145.7,40.0 212.1,40.0 245.3,40.0 278.6,40.0 298.0,40.0 311.4,40.0 311.6,40.0" fill="none" stroke="#be185d" stroke-width="2.0" stroke-linejoin="round" stroke-linecap="round"/><circle cx='311.6' cy='40.0' r='2.5' fill='#be185d'/><polyline points="79.2,40.0 145.7,40.0 212.1,40.0 245.3,40.0 278.6,40.0 298.0,40.0 311.4,40.0 311.6,40.0 311.8,40.0 331.2,40.0 345.0,40.0" fill="none" stroke="#374151" stroke-width="2.0" stroke-linejoin="round" stroke-linecap="round"/><circle cx='345.0' cy='40.0' r='2.5' fill='#374151'/><polyline points="79.2,40.0 145.7,40.0 212.1,40.0 245.3,40.0 278.6,40.0 298.0,40.0 311.4,40.0 311.6,40.0 311.8,40.0 331.2,40.0 345.0,40.0" fill="none" stroke="#7c2d12" stroke-width="2.0" stroke-linejoin="round" stroke-linecap="round"/><circle cx='345.0' cy='40.0' r='2.5' fill='#7c2d12'/><line x1='311.8' y1='40.0' x2='311.8' y2='270.0' stroke='#be185d' stroke-width='1.5' stroke-dasharray='3 3' opacity='0.85'/><text x='375.0' y='36'>p50 latency (ms)</text> <rect x='375.0' y='40.0' width='299.0' height='230.0' fill='#f8f8f8' stroke='#ccc'/><line x1='408.2' y1='40.0' x2='408.2' y2='270.0' stroke='#e4e4e4'/><text x='408.2' y='284.0' text-anchor='middle'>2</text><line x1='474.7' y1='40.0' x2='474.7' y2='270.0' stroke='#e4e4e4'/><text x='474.7' y='284.0' text-anchor='middle'>8</text><line x1='541.1' y1='40.0' x2='541.1' y2='270.0' stroke='#e4e4e4'/><text x='541.1' y='284.0' text-anchor='middle'>32</text><line x1='574.3' y1='40.0' x2='574.3' y2='270.0' stroke='#e4e4e4'/><text x='574.3' y='284.0' text-anchor='middle'>64</text><line x1='607.6' y1='40.0' x2='607.6' y2='270.0' stroke='#e4e4e4'/><text x='607.6' y='284.0' text-anchor='middle'>128</text><line x1='627.0' y1='40.0' x2='627.0' y2='270.0' stroke='#e4e4e4'/><line x1='640.4' y1='40.0' x2='640.4' y2='270.0' stroke='#e4e4e4'/><line x1='640.6' y1='40.0' x2='640.6' y2='270.0' stroke='#e4e4e4'/><text x='640.6' y='284.0' text-anchor='middle'>255</text><line x1='640.8' y1='40.0' x2='640.8' y2='270.0' stroke='#e4e4e4'/><line x1='660.2' y1='40.0' x2='660.2' y2='270.0' stroke='#e4e4e4'/><line x1='674.0' y1='40.0' x2='674.0' y2='270.0' stroke='#e4e4e4'/><text x='674.0' y='284.0' text-anchor='middle'>512</text><line x1='375.0' y1='270.0' x2='674.0' y2='270.0' stroke='#e4e4e4'/><text x='369.0' y='274.0' text-anchor='end'>0</text><line x1='375.0' y1='224.0' x2='674.0' y2='224.0' stroke='#e4e4e4'/><text x='369.0' y='228.0' text-anchor='end'>812</text><line x1='375.0' y1='178.0' x2='674.0' y2='178.0' stroke='#e4e4e4'/><text x='369.0' y='182.0' text-anchor='end'>1,624</text><line x1='375.0' y1='132.0' x2='674.0' y2='132.0' stroke='#e4e4e4'/><text x='369.0' y='136.0' text-anchor='end'>2,437</text><line x1='375.0' y1='86.0' x2='674.0' y2='86.0' stroke='#e4e4e4'/><text x='369.0' y='90.0' text-anchor='end'>3,249</text><line x1='375.0' y1='40.0' x2='674.0' y2='40.0' stroke='#e4e4e4'/><text x='369.0' y='44.0' text-anchor='end'>4,061</text><polyline points="408.2,129.5 474.7,84.3 541.1,166.5 574.3,112.2 607.6,40.0 627.0,53.5 640.4,129.0 640.6,139.6 640.8,153.7 660.2,154.6 674.0,166.7" fill="none" stroke="#2455e4" stroke-width="2.0" stroke-linejoin="round" stroke-linecap="round"/><circle cx='674.0' cy='166.7' r='2.5' fill='#2455e4'/><polyline points="408.2,172.6 474.7,174.4 541.1,179.1 574.3,179.7 607.6,168.7 627.0,177.6 640.4,168.6 640.6,153.9 640.8,162.5 660.2,162.5 674.0,146.8" fill="none" stroke="#d42a2a" stroke-width="2.0" stroke-linejoin="round" stroke-linecap="round"/><circle cx='674.0' cy='146.8' r='2.5' fill='#d42a2a'/><polyline points="408.2,270.0 474.7,270.0 541.1,270.0 574.3,270.0 607.6,270.0 627.0,270.0 640.4,270.0 640.6,270.0 640.8,270.0 660.2,270.0 674.0,270.0" fill="none" stroke="#187a3b" stroke-width="2.0" stroke-linejoin="round" stroke-linecap="round"/><circle cx='674.0' cy='270.0' r='2.5' fill='#187a3b'/><polyline points="408.2,270.0 474.7,270.0 541.1,270.0 574.3,270.0 607.6,270.0 627.0,270.0 640.4,270.0 640.6,270.0 640.8,270.0 660.2,270.0 674.0,270.0" fill="none" stroke="#a21caf" stroke-width="2.0" stroke-linejoin="round" stroke-linecap="round"/><circle cx='674.0' cy='270.0' r='2.5' fill='#a21caf'/><polyline points="408.2,270.0 474.7,270.0 541.1,270.0 574.3,270.0 607.6,270.0 627.0,270.0 640.4,270.0 640.6,270.0 640.8,270.0 660.2,270.0 674.0,270.0" fill="none" stroke="#b45309" stroke-width="2.0" stroke-linejoin="round" stroke-linecap="round"/><circle cx='674.0' cy='270.0' r='2.5' fill='#b45309'/><polyline points="408.2,254.7 474.7,254.3 541.1,254.0 574.3,253.7 607.6,253.8 627.0,252.5 640.4,252.1 640.6,252.5 640.8,253.1 660.2,250.7 674.0,250.6" fill="none" stroke="#0e7490" stroke-width="2.0" stroke-linejoin="round" stroke-linecap="round"/><circle cx='674.0' cy='250.6' r='2.5' fill='#0e7490'/><polyline points="408.2,227.9 474.7,228.3 541.1,225.7 574.3,227.3 607.6,223.6 627.0,227.6 640.4,222.5 640.6,227.4 640.8,225.3 660.2,227.3 674.0,224.9" fill="none" stroke="#5b21b6" stroke-width="2.0" stroke-linejoin="round" stroke-linecap="round"/><circle cx='674.0' cy='224.9' r='2.5' fill='#5b21b6'/><polyline points="408.2,233.7 474.7,232.3 541.1,233.1 574.3,233.4 607.6,232.6 627.0,231.0 640.4,230.4 640.6,231.2 640.8,231.0 660.2,228.5 674.0,231.0" fill="none" stroke="#991b1b" stroke-width="2.0" stroke-linejoin="round" stroke-linecap="round"/><circle cx='674.0' cy='231.0' r='2.5' fill='#991b1b'/><polyline points="408.2,226.8 474.7,226.6 541.1,224.5 574.3,226.3 607.6,225.5 627.0,226.2 640.4,226.1 640.6,226.1 640.8,225.5 660.2,225.3 674.0,223.7" fill="none" stroke="#4d7c0f" stroke-width="2.0" stroke-linejoin="round" stroke-linecap="round"/><circle cx='674.0' cy='223.7' r='2.5' fill='#4d7c0f'/><polyline points="408.2,255.1 474.7,255.3 541.1,254.7 574.3,254.4 607.6,254.7 627.0,254.6 640.4,253.6 640.6,253.9" fill="none" stroke="#be185d" stroke-width="2.0" stroke-linejoin="round" stroke-linecap="round"/><circle cx='640.6' cy='253.9' r='2.5' fill='#be185d'/><polyline points="408.2,137.1 474.7,143.7 541.1,139.6 574.3,151.2 607.6,139.4 627.0,139.9 640.4,131.4 640.6,135.6 640.8,130.5 660.2,130.3 674.0,120.2" fill="none" stroke="#374151" stroke-width="2.0" stroke-linejoin="round" stroke-linecap="round"/><circle cx='674.0' cy='120.2' r='2.5' fill='#374151'/><polyline points="408.2,153.1 474.7,145.9 541.1,160.0 574.3,166.0 607.6,160.4 627.0,172.1 640.4,159.0 640.6,152.4 640.8,142.4 660.2,146.4 674.0,141.9" fill="none" stroke="#7c2d12" stroke-width="2.0" stroke-linejoin="round" stroke-linecap="round"/><circle cx='674.0' cy='141.9' r='2.5' fill='#7c2d12'/><line x1='640.8' y1='40.0' x2='640.8' y2='270.0' stroke='#be185d' stroke-width='1.5' stroke-dasharray='3 3' opacity='0.85'/><line x1='46.0' y1='300.5' x2='60.0' y2='300.5' stroke='#2455e4' stroke-width='3' stroke-linecap='round'/><text x='66.0' y='304.0'>anthropic:claude-haiku-4-5</text><line x1='360.0' y1='300.5' x2='374.0' y2='300.5' stroke='#d42a2a' stroke-width='3' stroke-linecap='round'/><text x='380.0' y='304.0'>anthropic:claude-sonnet-4-6</text><line x1='46.0' y1='316.5' x2='60.0' y2='316.5' stroke='#187a3b' stroke-width='3' stroke-linecap='round'/><text x='66.0' y='320.0'>baseline:keyword</text><line x1='360.0' y1='316.5' x2='374.0' y2='316.5' stroke='#a21caf' stroke-width='3' stroke-linecap='round'/><text x='380.0' y='320.0'>baseline:majority</text><line x1='46.0' y1='332.5' x2='60.0' y2='332.5' stroke='#b45309' stroke-width='3' stroke-linecap='round'/><text x='66.0' y='336.0'>baseline:random</text><line x1='360.0' y1='332.5' x2='374.0' y2='332.5' stroke='#0e7490' stroke-width='3' stroke-linecap='round'/><text x='380.0' y='336.0'>cerebras:gpt-oss-120b</text><line x1='46.0' y1='348.5' x2='60.0' y2='348.5' stroke='#5b21b6' stroke-width='3' stroke-linecap='round'/><text x='66.0' y='352.0'>deepseek:deepseek-chat</text><line x1='360.0' y1='348.5' x2='374.0' y2='348.5' stroke='#991b1b' stroke-width='3' stroke-linecap='round'/><text x='380.0' y='352.0'>openai:gpt-5.4-mini</text><line x1='46.0' y1='364.5' x2='60.0' y2='364.5' stroke='#4d7c0f' stroke-width='3' stroke-linecap='round'/><text x='66.0' y='368.0'>openai:gpt-5.4-nano</text><line x1='360.0' y1='364.5' x2='374.0' y2='364.5' stroke='#be185d' stroke-width='3' stroke-linecap='round'/><text x='380.0' y='368.0'>typesafe:jev (ends at N=255)</text><line x1='46.0' y1='380.5' x2='60.0' y2='380.5' stroke='#374151' stroke-width='3' stroke-linecap='round'/><text x='66.0' y='384.0'>zai:glm-5.3</text><line x1='360.0' y1='380.5' x2='374.0' y2='380.5' stroke='#7c2d12' stroke-width='3' stroke-linecap='round'/><text x='380.0' y='384.0'>zai:glm-5.3-flash</text></svg>